<svg width="1238" height="297" viewBox="0 0 1238 297" fill="none" xmlns="http://www.w3.org/2000/svg">
<g filter="url(#filter0_d_957_190)">
<path d="M92.9474 41.064L54.0365 80.1921C52.7322 81.5038 52 83.2783 52 85.1281V225C52 228.866 55.134 232 59 232H520.844C522.701 232 524.481 231.262 525.794 229.95L551.988 203.756H952.124L978.326 229.958C979.638 231.27 981.411 232 983.267 232H1179C1182.87 232 1186 228.866 1186 225V85.1395C1186 83.283 1185.26 81.5025 1183.95 80.1898L1144.81 41.0503C1143.5 39.7375 1141.72 39 1139.86 39H97.9109C96.0476 39 94.2613 39.7429 92.9474 41.064Z" fill="#E7E7E7"/>
</g>
<defs>
<filter id="filter0_d_957_190" x="0.400002" y="0.400002" width="1237.2" height="296.2" filterUnits="userSpaceOnUse" color-interpolation-filters="sRGB">
<feFlood flood-opacity="0" result="BackgroundImageFix"/>
<feColorMatrix in="SourceAlpha" type="matrix" values="0 0 0 0 0 0 0 0 0 0 0 0 0 0 0 0 0 0 127 0" result="hardAlpha"/>
<feOffset dy="13"/>
<feGaussianBlur stdDeviation="25.8"/>
<feComposite in2="hardAlpha" operator="out"/>
<feColorMatrix type="matrix" values="0 0 0 0 0 0 0 0 0 0 0 0 0 0 0 0 0 0 0.95 0"/>
<feBlend mode="normal" in2="BackgroundImageFix" result="effect1_dropShadow_957_190"/>
<feBlend mode="normal" in="SourceGraphic" in2="effect1_dropShadow_957_190" result="shape"/>
</filter>
</defs>
</svg>
